<?xml version="1.0" encoding="UTF-8" standalone="no"?><svg xmlns="http://www.w3.org/2000/svg" xmlns:xlink="http://www.w3.org/1999/xlink" contentStyleType="text/css" height="676px" preserveAspectRatio="none" style="width:816px;height:676px;background:#FFFFFF;" version="1.1" viewBox="0 0 816 676" width="816px" zoomAndPan="magnify"><defs/><g><rect height="29.0679" style="stroke:#00000000;stroke-width:1.0;fill:none;" width="293" x="260.75" y="10"/><text fill="#000000" font-family="sans-serif" font-size="14" font-weight="bold" lengthAdjust="spacing" textLength="283" x="265.75" y="29.9659">Red Hat SaaS Offering Onboarding - AWS</text><line style="stroke:#181818;stroke-width:0.5;stroke-dasharray:5.0,5.0;" x1="69" x2="69" y1="124.1358" y2="592.5501"/><line style="stroke:#181818;stroke-width:0.5;stroke-dasharray:5.0,5.0;" x1="267.5" x2="267.5" y1="124.1358" y2="592.5501"/><line style="stroke:#181818;stroke-width:0.5;stroke-dasharray:5.0,5.0;" x1="444.5" x2="444.5" y1="124.1358" y2="592.5501"/><line style="stroke:#181818;stroke-width:0.5;stroke-dasharray:5.0,5.0;" x1="622" x2="622" y1="124.1358" y2="592.5501"/><line style="stroke:#181818;stroke-width:0.5;stroke-dasharray:5.0,5.0;" x1="758.5" x2="758.5" y1="124.1358" y2="592.5501"/><text fill="#000000" font-family="sans-serif" font-size="14" lengthAdjust="spacing" textLength="122" x="5" y="120.0339">Red Hat Customer</text><ellipse cx="69" cy="53.5679" fill="#E2E2F0" rx="8" ry="8" style="stroke:#181818;stroke-width:0.5;"/><path d="M69,61.5679 L69,88.5679 M56,69.5679 L82,69.5679 M69,88.5679 L56,103.5679 M69,88.5679 L82,103.5679 " fill="none" style="stroke:#181818;stroke-width:0.5;"/><text fill="#000000" font-family="sans-serif" font-size="14" lengthAdjust="spacing" textLength="122" x="5" y="606.5161">Red Hat Customer</text><ellipse cx="69" cy="619.1181" fill="#E2E2F0" rx="8" ry="8" style="stroke:#181818;stroke-width:0.5;"/><path d="M69,627.1181 L69,654.1181 M56,635.1181 L82,635.1181 M69,654.1181 L56,669.1181 M69,654.1181 L82,669.1181 " fill="none" style="stroke:#181818;stroke-width:0.5;"/><rect fill="#E2E2F0" height="33.0679" rx="2.5" ry="2.5" style="stroke:#181818;stroke-width:0.5;" width="129" x="203.5" y="90.0679"/><text fill="#000000" font-family="sans-serif" font-size="14" lengthAdjust="spacing" textLength="115" x="210.5" y="112.0339">AWS Marketplace</text><rect fill="#E2E2F0" height="33.0679" rx="2.5" ry="2.5" style="stroke:#181818;stroke-width:0.5;" width="129" x="203.5" y="591.5501"/><text fill="#000000" font-family="sans-serif" font-size="14" lengthAdjust="spacing" textLength="115" x="210.5" y="613.5161">AWS Marketplace</text><rect fill="#E2E2F0" height="52.1358" rx="2.5" ry="2.5" style="stroke:#181818;stroke-width:0.5;" width="103" x="393.5" y="71"/><text fill="#000000" font-family="sans-serif" font-size="14" lengthAdjust="spacing" textLength="89" x="400.5" y="92.9659">Red Hat SaaS</text><text fill="#000000" font-family="sans-serif" font-size="14" lengthAdjust="spacing" textLength="76" x="407" y="112.0339">Onboarding</text><rect fill="#E2E2F0" height="52.1358" rx="2.5" ry="2.5" style="stroke:#181818;stroke-width:0.5;" width="103" x="393.5" y="591.5501"/><text fill="#000000" font-family="sans-serif" font-size="14" lengthAdjust="spacing" textLength="89" x="400.5" y="613.5161">Red Hat SaaS</text><text fill="#000000" font-family="sans-serif" font-size="14" lengthAdjust="spacing" textLength="76" x="407" y="632.584">Onboarding</text><rect fill="#E2E2F0" height="52.1358" rx="2.5" ry="2.5" style="stroke:#181818;stroke-width:0.5;" width="112" x="566" y="71"/><text fill="#000000" font-family="sans-serif" font-size="14" lengthAdjust="spacing" textLength="53" x="595.5" y="92.9659">Red Hat</text><text fill="#000000" font-family="sans-serif" font-size="14" lengthAdjust="spacing" textLength="98" x="573" y="112.0339">IT Subscription</text><rect fill="#E2E2F0" height="52.1358" rx="2.5" ry="2.5" style="stroke:#181818;stroke-width:0.5;" width="112" x="566" y="591.5501"/><text fill="#000000" font-family="sans-serif" font-size="14" lengthAdjust="spacing" textLength="53" x="595.5" y="613.5161">Red Hat</text><text fill="#000000" font-family="sans-serif" font-size="14" lengthAdjust="spacing" textLength="98" x="573" y="632.584">IT Subscription</text><rect fill="#E2E2F0" height="52.1358" rx="2.5" ry="2.5" style="stroke:#181818;stroke-width:0.5;" width="103" x="707.5" y="71"/><text fill="#000000" font-family="sans-serif" font-size="14" lengthAdjust="spacing" textLength="89" x="714.5" y="92.9659">Red Hat SaaS</text><text fill="#000000" font-family="sans-serif" font-size="14" lengthAdjust="spacing" textLength="89" x="714.5" y="112.0339">Control Plane</text><rect fill="#E2E2F0" height="52.1358" rx="2.5" ry="2.5" style="stroke:#181818;stroke-width:0.5;" width="103" x="707.5" y="591.5501"/><text fill="#000000" font-family="sans-serif" font-size="14" lengthAdjust="spacing" textLength="89" x="714.5" y="613.5161">Red Hat SaaS</text><text fill="#000000" font-family="sans-serif" font-size="14" lengthAdjust="spacing" textLength="89" x="714.5" y="632.584">Control Plane</text><polygon fill="#181818" points="256,153.8419,266,157.8419,256,161.8419,260,157.8419" style="stroke:#181818;stroke-width:1.0;"/><line style="stroke:#181818;stroke-width:1.0;" x1="69" x2="262" y1="157.8419" y2="157.8419"/><text fill="#000000" font-family="sans-serif" font-size="13" lengthAdjust="spacing" textLength="162" x="76" y="152.0328">Subscribe to SaaS offering</text><polygon fill="#181818" points="80,185.5479,70,189.5479,80,193.5479,76,189.5479" style="stroke:#181818;stroke-width:1.0;"/><line style="stroke:#181818;stroke-width:1.0;stroke-dasharray:2.0,2.0;" x1="74" x2="267" y1="189.5479" y2="189.5479"/><text fill="#000000" font-family="sans-serif" font-size="13" lengthAdjust="spacing" textLength="175" x="86" y="183.7389">Redirect to Onboarding Page</text><polygon fill="#181818" points="433,217.2539,443,221.2539,433,225.2539,437,221.2539" style="stroke:#181818;stroke-width:1.0;"/><line style="stroke:#181818;stroke-width:1.0;" x1="69" x2="439" y1="221.2539" y2="221.2539"/><text fill="#000000" font-family="sans-serif" font-size="13" lengthAdjust="spacing" textLength="164" x="76" y="215.4449">x-amzn-marketplace-token</text><polygon fill="#181818" points="279,248.9599,269,252.9599,279,256.9599,275,252.9599" style="stroke:#181818;stroke-width:1.0;"/><line style="stroke:#181818;stroke-width:1.0;" x1="273" x2="444" y1="252.9599" y2="252.9599"/><text fill="#000000" font-family="sans-serif" font-size="13" lengthAdjust="spacing" textLength="139" x="285" y="247.1509">AWS ResolveCustomer</text><polygon fill="#181818" points="433,351.49,443,355.49,433,359.49,437,355.49" style="stroke:#181818;stroke-width:1.0;"/><line style="stroke:#181818;stroke-width:1.0;stroke-dasharray:2.0,2.0;" x1="268" x2="439" y1="355.49" y2="355.49"/><text fill="#000000" font-family="sans-serif" font-size="13" lengthAdjust="spacing" textLength="5" x="275" y="278.8569">{</text><text fill="#000000" font-family="sans-serif" font-size="13" lengthAdjust="spacing" textLength="147" x="281" y="296.5629">awsCustomerAccountId,</text><text fill="#000000" font-family="sans-serif" font-size="13" lengthAdjust="spacing" textLength="99" x="281" y="314.2689">awsCustomerId,</text><text fill="#000000" font-family="sans-serif" font-size="13" lengthAdjust="spacing" textLength="103" x="281" y="331.975">awsProductCode</text><text fill="#000000" font-family="sans-serif" font-size="13" lengthAdjust="spacing" textLength="5" x="275" y="349.681">}</text><polygon fill="#181818" points="610,524.8441,620,528.8441,610,532.8441,614,528.8441" style="stroke:#181818;stroke-width:1.0;"/><line style="stroke:#181818;stroke-width:1.0;" x1="445" x2="616" y1="528.8441" y2="528.8441"/><text fill="#000000" font-family="sans-serif" font-size="13" lengthAdjust="spacing" textLength="5" x="452" y="381.387">{</text><text fill="#000000" font-family="sans-serif" font-size="13" lengthAdjust="spacing" textLength="147" x="458" y="399.093">awsCustomerAccountId,</text><text fill="#000000" font-family="sans-serif" font-size="13" lengthAdjust="spacing" textLength="99" x="458" y="416.799">awsCustomerId,</text><text fill="#000000" font-family="sans-serif" font-size="13" lengthAdjust="spacing" textLength="106" x="458" y="434.505">awsProductCode,</text><text fill="#000000" font-family="sans-serif" font-size="13" lengthAdjust="spacing" textLength="101" x="458" y="452.2111">webCustomerId,</text><text fill="#000000" font-family="sans-serif" font-size="13" lengthAdjust="spacing" textLength="25" x="458" y="469.9171">sku,</text><text fill="#000000" font-family="sans-serif" font-size="13" lengthAdjust="spacing" textLength="30" x="458" y="487.6231">start,</text><text fill="#000000" font-family="sans-serif" font-size="13" lengthAdjust="spacing" textLength="24" x="458" y="505.3291">end</text><text fill="#000000" font-family="sans-serif" font-size="13" lengthAdjust="spacing" textLength="5" x="452" y="523.0351">}</text><polygon fill="#181818" points="633,556.5501,623,560.5501,633,564.5501,629,560.5501" style="stroke:#181818;stroke-width:1.0;"/><line style="stroke:#181818;stroke-width:1.0;" x1="627" x2="758" y1="560.5501" y2="560.5501"/><text fill="#000000" font-family="sans-serif" font-size="13" lengthAdjust="spacing" textLength="113" x="639" y="554.7411">sync subscriptions</text><polygon fill="#181818" points="747,570.5501,757,574.5501,747,578.5501,751,574.5501" style="stroke:#181818;stroke-width:1.0;"/><line style="stroke:#181818;stroke-width:1.0;stroke-dasharray:2.0,2.0;" x1="622" x2="753" y1="574.5501" y2="574.5501"/><!--MD5=[62cde0d3847e154d61a3a129dfae15ac]
@startuml

title "Red Hat SaaS Offering Onboarding - AWS"

actor "Red Hat Customer" as customer
participant "AWS Marketplace" as aws
participant "Red Hat SaaS\nOnboarding" as onboarding
participant "Red Hat\nIT Subscription" as rhit
participant "Red Hat SaaS\nControl Plane" as control_plane

customer -> aws: Subscribe to SaaS offering
return Redirect to Onboarding Page

customer -> onboarding:  x-amzn-marketplace-token
onboarding -> aws: AWS ResolveCustomer
return {\n  awsCustomerAccountId,\n  awsCustomerId,\n  awsProductCode\n}

onboarding -> rhit: {\n  awsCustomerAccountId,\n  awsCustomerId,\n  awsProductCode,\n  webCustomerId,\n  sku,\n  start,\n  end\n}

control_plane -> rhit: sync subscriptions
return

@enduml

PlantUML version 1.2022.4(Sat Apr 09 13:29:17 UTC 2022)
(LGPL source distribution)
Java Runtime: OpenJDK Runtime Environment
JVM: OpenJDK 64-Bit Server VM
Default Encoding: ANSI_X3.4-1968
Language: en
Country: US
--></g></svg>