<?xml version="1.0" encoding="UTF-8" standalone="no"?><svg xmlns="http://www.w3.org/2000/svg" xmlns:xlink="http://www.w3.org/1999/xlink" contentStyleType="text/css" height="640px" preserveAspectRatio="none" style="width:532px;height:640px;background:#FFFFFF;" version="1.1" viewBox="0 0 532 640" width="532px" zoomAndPan="magnify"><defs/><g><!--MD5=[594b589b3b8815dc4a106b879a99d82f]
class rhAccount--><g id="elem_rhAccount"><rect codeLine="2" fill="#F1F1F1" height="86.1358" id="rhAccount" rx="2.5" ry="2.5" style="stroke:#181818;stroke-width:0.5;" width="149" x="120.73" y="7"/><ellipse cx="153.73" cy="23" fill="#ADD1B2" rx="11" ry="11" style="stroke:#181818;stroke-width:1.0;"/><path d="M152.5894,24.0625 L153.9019,24.0625 L153.9019,24.1094 C153.9019,24.5156 153.9175,24.6719 154.0269,24.8281 C154.1988,25.0781 154.4956,25.25 154.8081,25.25 C155.0894,25.25 155.3863,25.1094 155.5581,24.8906 C155.6831,24.7031 155.73,24.5625 155.73,24.1094 L155.73,22.2656 C155.73,21.9375 155.7144,21.8281 155.6519,21.6563 C155.5425,21.3594 155.1831,21.1094 154.8081,21.1094 C154.5113,21.1094 154.2456,21.25 154.0738,21.4688 C153.9331,21.6563 153.9019,21.8281 153.9019,22.2656 L153.9019,22.3281 L152.5894,22.3281 L152.5894,20.1563 L156.4331,20.1563 L156.4331,20.9063 C156.4331,21.2969 156.4644,21.4844 156.5738,21.6406 C156.7456,21.8906 157.0425,22.0625 157.355,22.0625 C157.6519,22.0625 157.9175,21.9375 158.105,21.7031 C158.2456,21.5156 158.2769,21.375 158.2769,20.9063 L158.2769,18.4063 L150.5738,18.4063 C150.1206,18.4063 149.9956,18.4219 149.8238,18.5313 C149.5581,18.7031 149.3863,18.9688 149.3863,19.2813 C149.3863,19.5625 149.5113,19.8281 149.7613,20 C149.9488,20.125 150.1363,20.1563 150.5738,20.1563 L150.7613,20.1563 L150.7613,26.25 L150.5738,26.25 C150.1519,26.25 149.9956,26.2813 149.8238,26.375 C149.5581,26.5313 149.3863,26.8125 149.3863,27.1094 C149.3863,27.6875 149.7925,28 150.5738,28 L158.6519,28 L158.6519,25.4688 C158.6519,25.0625 158.6206,24.8906 158.5113,24.7344 C158.3394,24.4688 158.0581,24.3125 157.73,24.3125 C157.4488,24.3125 157.1675,24.4531 156.98,24.6719 C156.8394,24.8594 156.8081,25.0156 156.8081,25.4688 L156.8081,26.25 L152.5894,26.25 L152.5894,24.0625 Z " fill="#000000"/><text fill="#000000" font-family="sans-serif" font-size="14" lengthAdjust="spacing" textLength="77" x="171.73" y="28.432">RH Account</text><line style="stroke:#181818;stroke-width:0.5;" x1="121.73" x2="268.73" y1="39" y2="39"/><ellipse cx="131.73" cy="50" fill="#000000" rx="3" ry="3" style="stroke:#000000;stroke-width:1.0;"/><text fill="#000000" font-family="sans-serif" font-size="14" font-weight="bold" lengthAdjust="spacing" textLength="110.6875" x="140.73" y="57.9659">webCustomerId</text><line style="stroke:#181818;stroke-width:1.0;" x1="121.73" x2="268.73" y1="66.0679" y2="66.0679"/><text fill="#000000" font-family="sans-serif" font-size="14" font-weight="bold" lengthAdjust="spacing" textLength="137" x="126.73" y="85.0339">ebsAccountNumber</text></g><!--MD5=[b6f583e980494de6249d51550e85bba8]
class awsAccount--><g id="elem_awsAccount"><rect codeLine="8" fill="#F1F1F1" height="67.0679" id="awsAccount" rx="2.5" ry="2.5" style="stroke:#181818;stroke-width:0.5;" width="192.75" x="98.73" y="566"/><ellipse cx="146.855" cy="582" fill="#ADD1B2" rx="11" ry="11" style="stroke:#181818;stroke-width:1.0;"/><path d="M145.7144,583.0625 L147.0269,583.0625 L147.0269,583.1094 C147.0269,583.5156 147.0425,583.6719 147.1519,583.8281 C147.3238,584.0781 147.6206,584.25 147.9331,584.25 C148.2144,584.25 148.5113,584.1094 148.6831,583.8906 C148.8081,583.7031 148.855,583.5625 148.855,583.1094 L148.855,581.2656 C148.855,580.9375 148.8394,580.8281 148.7769,580.6563 C148.6675,580.3594 148.3081,580.1094 147.9331,580.1094 C147.6363,580.1094 147.3706,580.25 147.1988,580.4688 C147.0581,580.6563 147.0269,580.8281 147.0269,581.2656 L147.0269,581.3281 L145.7144,581.3281 L145.7144,579.1563 L149.5581,579.1563 L149.5581,579.9063 C149.5581,580.2969 149.5894,580.4844 149.6988,580.6406 C149.8706,580.8906 150.1675,581.0625 150.48,581.0625 C150.7769,581.0625 151.0425,580.9375 151.23,580.7031 C151.3706,580.5156 151.4019,580.375 151.4019,579.9063 L151.4019,577.4063 L143.6988,577.4063 C143.2456,577.4063 143.1206,577.4219 142.9488,577.5313 C142.6831,577.7031 142.5113,577.9688 142.5113,578.2813 C142.5113,578.5625 142.6363,578.8281 142.8863,579 C143.0738,579.125 143.2613,579.1563 143.6988,579.1563 L143.8863,579.1563 L143.8863,585.25 L143.6988,585.25 C143.2769,585.25 143.1206,585.2813 142.9488,585.375 C142.6831,585.5313 142.5113,585.8125 142.5113,586.1094 C142.5113,586.6875 142.9175,587 143.6988,587 L151.7769,587 L151.7769,584.4688 C151.7769,584.0625 151.7456,583.8906 151.6363,583.7344 C151.4644,583.4688 151.1831,583.3125 150.855,583.3125 C150.5738,583.3125 150.2925,583.4531 150.105,583.6719 C149.9644,583.8594 149.9331,584.0156 149.9331,584.4688 L149.9331,585.25 L145.7144,585.25 L145.7144,583.0625 Z " fill="#000000"/><text fill="#000000" font-family="sans-serif" font-size="14" lengthAdjust="spacing" textLength="88" x="167.355" y="587.432">AWS Account</text><line style="stroke:#181818;stroke-width:0.5;" x1="99.73" x2="290.48" y1="598" y2="598"/><ellipse cx="109.73" cy="609" fill="#000000" rx="3" ry="3" style="stroke:#000000;stroke-width:1.0;"/><text fill="#000000" font-family="sans-serif" font-size="14" font-weight="bold" lengthAdjust="spacing" textLength="166.75" x="118.73" y="616.9659">awsCustomerAccountId</text><line style="stroke:#181818;stroke-width:0.5;" x1="99.73" x2="290.48" y1="625.0679" y2="625.0679"/></g><!--MD5=[d13265c46b61f11b4fb467e42c022bc0]
class rhSub--><g id="elem_rhSub"><rect codeLine="12" fill="#F1F1F1" height="353.0867" id="rhSub" rx="2.5" ry="2.5" style="stroke:#181818;stroke-width:0.5;" width="205" x="92.73" y="153"/><ellipse cx="131.13" cy="169" fill="#ADD1B2" rx="11" ry="11" style="stroke:#181818;stroke-width:1.0;"/><path d="M129.9894,170.0625 L131.3019,170.0625 L131.3019,170.1094 C131.3019,170.5156 131.3175,170.6719 131.4269,170.8281 C131.5988,171.0781 131.8956,171.25 132.2081,171.25 C132.4894,171.25 132.7863,171.1094 132.9581,170.8906 C133.0831,170.7031 133.13,170.5625 133.13,170.1094 L133.13,168.2656 C133.13,167.9375 133.1144,167.8281 133.0519,167.6563 C132.9425,167.3594 132.5831,167.1094 132.2081,167.1094 C131.9113,167.1094 131.6456,167.25 131.4738,167.4688 C131.3331,167.6563 131.3019,167.8281 131.3019,168.2656 L131.3019,168.3281 L129.9894,168.3281 L129.9894,166.1563 L133.8331,166.1563 L133.8331,166.9063 C133.8331,167.2969 133.8644,167.4844 133.9738,167.6406 C134.1456,167.8906 134.4425,168.0625 134.755,168.0625 C135.0519,168.0625 135.3175,167.9375 135.505,167.7031 C135.6456,167.5156 135.6769,167.375 135.6769,166.9063 L135.6769,164.4063 L127.9738,164.4063 C127.5206,164.4063 127.3956,164.4219 127.2238,164.5313 C126.9581,164.7031 126.7863,164.9688 126.7863,165.2813 C126.7863,165.5625 126.9113,165.8281 127.1613,166 C127.3488,166.125 127.5363,166.1563 127.9738,166.1563 L128.1613,166.1563 L128.1613,172.25 L127.9738,172.25 C127.5519,172.25 127.3956,172.2813 127.2238,172.375 C126.9581,172.5313 126.7863,172.8125 126.7863,173.1094 C126.7863,173.6875 127.1925,174 127.9738,174 L136.0519,174 L136.0519,171.4688 C136.0519,171.0625 136.0206,170.8906 135.9113,170.7344 C135.7394,170.4688 135.4581,170.3125 135.13,170.3125 C134.8488,170.3125 134.5675,170.4531 134.38,170.6719 C134.2394,170.8594 134.2081,171.0156 134.2081,171.4688 L134.2081,172.25 L129.9894,172.25 L129.9894,170.0625 Z " fill="#000000"/><text fill="#000000" font-family="sans-serif" font-size="14" lengthAdjust="spacing" textLength="121" x="150.33" y="174.432">RH IT Subscription</text><line style="stroke:#181818;stroke-width:0.5;" x1="93.73" x2="296.73" y1="185" y2="185"/><ellipse cx="103.73" cy="196" fill="#000000" rx="3" ry="3" style="stroke:#000000;stroke-width:1.0;"/><text fill="#000000" font-family="sans-serif" font-size="14" lengthAdjust="spacing" textLength="92" x="112.73" y="203.9659">subscriptionId</text><line style="stroke:#181818;stroke-width:1.0;" x1="93.73" x2="296.73" y1="212.0679" y2="212.0679"/><ellipse cx="103.73" cy="223.0679" fill="#000000" rx="3" ry="3" style="stroke:#000000;stroke-width:1.0;"/><text fill="#000000" font-family="sans-serif" font-size="14" font-weight="bold" lengthAdjust="spacing" textLength="110.6875" x="112.73" y="231.0339">webCustomerId</text><text fill="#000000" font-family="sans-serif" font-size="14" font-weight="bold" lengthAdjust="spacing" textLength="137" x="112.73" y="250.1018">ebsAccountNumber</text><ellipse cx="103.73" cy="261.2038" fill="#000000" rx="3" ry="3" style="stroke:#000000;stroke-width:1.0;"/><text fill="#000000" font-family="sans-serif" font-size="14" lengthAdjust="spacing" textLength="22" x="112.73" y="269.1697">sku</text><ellipse cx="103.73" cy="280.2717" fill="#000000" rx="3" ry="3" style="stroke:#000000;stroke-width:1.0;"/><text fill="#000000" font-family="sans-serif" font-size="14" lengthAdjust="spacing" textLength="65" x="112.73" y="288.2376">startDate</text><ellipse cx="103.73" cy="299.3396" fill="#000000" rx="3" ry="3" style="stroke:#000000;stroke-width:1.0;"/><text fill="#000000" font-family="sans-serif" font-size="14" lengthAdjust="spacing" textLength="57" x="112.73" y="307.3055">endDate</text><ellipse cx="103.73" cy="318.4075" fill="#000000" rx="3" ry="3" style="stroke:#000000;stroke-width:1.0;"/><text fill="#000000" font-family="sans-serif" font-size="14" font-weight="bold" lengthAdjust="spacing" textLength="166.75" x="112.73" y="326.3734">awsCustomerAccountId</text><text fill="#000000" font-family="sans-serif" font-size="14" lengthAdjust="spacing" textLength="117" x="112.73" y="345.4414">(customer selects</text><text fill="#000000" font-family="sans-serif" font-size="14" lengthAdjust="spacing" textLength="176" x="112.73" y="364.5093">during service provisioning)</text><ellipse cx="103.73" cy="375.6113" fill="#000000" rx="3" ry="3" style="stroke:#000000;stroke-width:1.0;"/><text fill="#000000" font-family="sans-serif" font-size="14" font-weight="bold" lengthAdjust="spacing" textLength="122" x="112.73" y="383.5772">awsSellerAccount</text><ellipse cx="103.73" cy="394.6792" fill="#000000" rx="3" ry="3" style="stroke:#000000;stroke-width:1.0;"/><text fill="#000000" font-family="sans-serif" font-size="14" font-weight="bold" lengthAdjust="spacing" textLength="118.125" x="112.73" y="402.6451">awsProductCode</text><text fill="#000000" font-family="sans-serif" font-size="14" lengthAdjust="spacing" textLength="115" x="112.73" y="421.713">(generated during</text><text fill="#000000" font-family="sans-serif" font-size="14" lengthAdjust="spacing" textLength="121" x="112.73" y="440.7809">product definition)</text><ellipse cx="103.73" cy="451.8829" fill="#000000" rx="3" ry="3" style="stroke:#000000;stroke-width:1.0;"/><text fill="#000000" font-family="sans-serif" font-size="14" font-weight="bold" lengthAdjust="spacing" textLength="109.6875" x="112.73" y="459.8489">awsCustomerId</text><text fill="#000000" font-family="sans-serif" font-size="14" lengthAdjust="spacing" textLength="152" x="112.73" y="478.9168">(generated per-product</text><text fill="#000000" font-family="sans-serif" font-size="14" lengthAdjust="spacing" textLength="179" x="112.73" y="497.9847">when customer subscribes)</text></g><!--MD5=[9b51f7ebc30b07375cc947b052eeb705]
class serviceInstance--><g id="elem_serviceInstance"><rect codeLine="32" fill="#F1F1F1" height="140.4075" id="serviceInstance" rx="2.5" ry="2.5" style="stroke:#181818;stroke-width:0.5;" width="192.75" x="332.73" y="259.5"/><ellipse cx="357.5175" cy="283.5679" fill="#ADD1B2" rx="11" ry="11" style="stroke:#181818;stroke-width:1.0;"/><path d="M356.3769,284.6304 L357.6894,284.6304 L357.6894,284.6773 C357.6894,285.0835 357.705,285.2398 357.8144,285.396 C357.9863,285.646 358.2831,285.8179 358.5956,285.8179 C358.8769,285.8179 359.1738,285.6773 359.3456,285.4585 C359.4706,285.271 359.5175,285.1304 359.5175,284.6773 L359.5175,282.8335 C359.5175,282.5054 359.5019,282.396 359.4394,282.2242 C359.33,281.9273 358.9706,281.6773 358.5956,281.6773 C358.2988,281.6773 358.0331,281.8179 357.8613,282.0367 C357.7206,282.2242 357.6894,282.396 357.6894,282.8335 L357.6894,282.896 L356.3769,282.896 L356.3769,280.7242 L360.2206,280.7242 L360.2206,281.4742 C360.2206,281.8648 360.2519,282.0523 360.3613,282.2085 C360.5331,282.4585 360.83,282.6304 361.1425,282.6304 C361.4394,282.6304 361.705,282.5054 361.8925,282.271 C362.0331,282.0835 362.0644,281.9429 362.0644,281.4742 L362.0644,278.9742 L354.3613,278.9742 C353.9081,278.9742 353.7831,278.9898 353.6113,279.0992 C353.3456,279.271 353.1738,279.5367 353.1738,279.8492 C353.1738,280.1304 353.2988,280.396 353.5488,280.5679 C353.7363,280.6929 353.9238,280.7242 354.3613,280.7242 L354.5488,280.7242 L354.5488,286.8179 L354.3613,286.8179 C353.9394,286.8179 353.7831,286.8492 353.6113,286.9429 C353.3456,287.0992 353.1738,287.3804 353.1738,287.6773 C353.1738,288.2554 353.58,288.5679 354.3613,288.5679 L362.4394,288.5679 L362.4394,286.0367 C362.4394,285.6304 362.4081,285.4585 362.2988,285.3023 C362.1269,285.0367 361.8456,284.8804 361.5175,284.8804 C361.2363,284.8804 360.955,285.021 360.7675,285.2398 C360.6269,285.4273 360.5956,285.5835 360.5956,286.0367 L360.5956,286.8179 L356.3769,286.8179 L356.3769,284.6304 Z " fill="#000000"/><text fill="#000000" font-family="sans-serif" font-size="14" lengthAdjust="spacing" textLength="107" x="389.6925" y="279.4659">Service Instance</text><text fill="#000000" font-family="sans-serif" font-size="14" lengthAdjust="spacing" textLength="139" x="373.6925" y="298.5339">(e.g. RHOSAK cluster)</text><line style="stroke:#181818;stroke-width:0.5;" x1="333.73" x2="524.48" y1="307.6358" y2="307.6358"/><ellipse cx="343.73" cy="318.6358" fill="#000000" rx="3" ry="3" style="stroke:#000000;stroke-width:1.0;"/><text fill="#000000" font-family="sans-serif" font-size="14" lengthAdjust="spacing" textLength="71" x="352.73" y="326.6018">instanceID</text><line style="stroke:#181818;stroke-width:1.0;" x1="333.73" x2="524.48" y1="334.7038" y2="334.7038"/><text fill="#000000" font-family="sans-serif" font-size="14" font-weight="bold" lengthAdjust="spacing" textLength="137" x="352.73" y="353.6697">ebsAccountNumber</text><ellipse cx="343.73" cy="364.7717" fill="#000000" rx="3" ry="3" style="stroke:#000000;stroke-width:1.0;"/><text fill="#000000" font-family="sans-serif" font-size="14" font-weight="bold" lengthAdjust="spacing" textLength="110.6875" x="352.73" y="372.7376">webCustomerId</text><ellipse cx="343.73" cy="383.8396" fill="#000000" rx="3" ry="3" style="stroke:#000000;stroke-width:1.0;"/><text fill="#000000" font-family="sans-serif" font-size="14" font-weight="bold" lengthAdjust="spacing" textLength="166.75" x="352.73" y="391.8055">awsCustomerAccountId</text></g><!--MD5=[dcfc6a6b8d9ec72978c156b73c6d375a]
link rhAccount to rhSub--><g id="link_rhAccount_rhSub"><path codeLine="41" d="M195.23,93.15 C195.23,107.94 195.23,125.64 195.23,144.6 " fill="none" id="rhAccount-to-rhSub" style="stroke:#181818;stroke-width:1.0;"/><line style="stroke:#181818;stroke-width:1.0;" x1="195.23" x2="201.23" y1="144.8" y2="152.8"/><line style="stroke:#181818;stroke-width:1.0;" x1="195.23" x2="189.23" y1="144.8" y2="152.8"/><line style="stroke:#181818;stroke-width:1.0;" x1="195.23" x2="195.23" y1="144.8" y2="152.8"/><line style="stroke:#181818;stroke-width:1.0;" x1="199.23" x2="191.23" y1="142.8" y2="142.8"/></g><!--MD5=[0b605246577fe7515883874c3dd82f27]
link rhAccount to awsAccount--><g id="link_rhAccount_awsAccount"><path codeLine="42" d="M125.8,93.06 C105.68,109.09 86.19,129.3 75.23,153 C9.38,295.4 6,365.21 75.23,506 C86.18,528.27 105.36,546.68 125.21,561.07 " fill="none" id="rhAccount-to-awsAccount" style="stroke:#181818;stroke-width:1.0;"/><line style="stroke:#181818;stroke-width:1.0;" x1="125.4088" x2="135.4037" y1="561.1985" y2="560.8766"/><line style="stroke:#181818;stroke-width:1.0;" x1="125.4088" x2="128.5163" y1="561.1985" y2="570.7034"/><line style="stroke:#181818;stroke-width:1.0;" x1="125.4088" x2="131.96" y1="561.1985" y2="565.79"/><line style="stroke:#181818;stroke-width:1.0;" x1="126.0668" x2="121.4753" y1="556.775" y2="563.3262"/></g><!--MD5=[c5ae580f1d0501b2b77b9b1905e8b438]
link rhAccount to serviceInstance--><g id="link_rhAccount_serviceInstance"><path codeLine="43" d="M251.45,93.09 C272.68,110.4 296.28,131.44 315.23,153 C341.77,183.19 366.67,220.06 386.38,252.2 " fill="none" id="rhAccount-to-serviceInstance" style="stroke:#181818;stroke-width:1.0;"/><line style="stroke:#181818;stroke-width:1.0;" x1="386.6" x2="395.885" y1="252.5767" y2="256.29"/><line style="stroke:#181818;stroke-width:1.0;" x1="386.6" x2="385.635" y1="252.5767" y2="262.53"/><line style="stroke:#181818;stroke-width:1.0;" x1="386.6" x2="390.76" y1="252.5767" y2="259.41"/><line style="stroke:#181818;stroke-width:1.0;" x1="388.9766" x2="382.1433" y1="248.7883" y2="252.9484"/></g><!--MD5=[1ed7cb877bf166ed2eb3c0ae7c969c4c]
reverse link rhSub to awsAccount--><g id="link_rhSub_awsAccount"><path codeLine="44" d="M195.23,514.36 C195.23,533.72 195.23,551.46 195.23,565.61 " fill="none" id="rhSub-backto-awsAccount" style="stroke:#181818;stroke-width:1.0;"/><line style="stroke:#181818;stroke-width:1.0;" x1="195.23" x2="189.23" y1="514.27" y2="506.27"/><line style="stroke:#181818;stroke-width:1.0;" x1="195.23" x2="201.23" y1="514.27" y2="506.27"/><line style="stroke:#181818;stroke-width:1.0;" x1="195.23" x2="195.23" y1="514.27" y2="506.27"/><line style="stroke:#181818;stroke-width:1.0;" x1="191.23" x2="199.23" y1="516.27" y2="516.27"/></g><!--MD5=[7f5d9e9e8b3e9d71e2b9b07b8e69172c]
reverse link serviceInstance to awsAccount--><g id="link_serviceInstance_awsAccount"><path codeLine="45" d="M387.31,407.01 C367.69,439.36 342.6,476.33 315.23,506 C294.54,528.43 267.97,549.52 245.08,565.89 " fill="none" id="serviceInstance-backto-awsAccount" style="stroke:#181818;stroke-width:1.0;"/><line style="stroke:#181818;stroke-width:1.0;" x1="387.5435" x2="386.5298" y1="406.6136" y2="396.6652"/><line style="stroke:#181818;stroke-width:1.0;" x1="387.5435" x2="396.8102" y1="406.6136" y2="402.8548"/><line style="stroke:#181818;stroke-width:1.0;" x1="387.5435" x2="391.67" y1="406.6136" y2="399.76"/><line style="stroke:#181818;stroke-width:1.0;" x1="383.0851" x2="389.9387" y1="406.2638" y2="410.3903"/></g><!--MD5=[a83c25a3eed3be4f9dc6212c42472acc]
@startuml

entity "RH Account" as rhAccount {
  * **webCustomerId**
  - -
  **ebsAccountNumber**
}

entity "AWS Account" as awsAccount {
  * **awsCustomerAccountId**
}

entity "RH IT Subscription" as rhSub {
  * subscriptionId
  - -
  * **webCustomerId**
    **ebsAccountNumber**
  * sku
  * startDate
  * endDate
  * **awsCustomerAccountId**
    (customer selects
    during service provisioning)
  * **awsSellerAccount**
  * **awsProductCode**
    (generated during
    product definition)
  * **awsCustomerId**
    (generated per-product
    when customer subscribes)
}

entity "Service Instance\n(e.g. RHOSAK cluster)" as serviceInstance {
  * instanceID
  - -
  **ebsAccountNumber**
  * **webCustomerId**
  * **awsCustomerAccountId**
}

rhAccount - -|{ rhSub
rhAccount - -|{ awsAccount
rhAccount - -|{ serviceInstance
rhSub }|- - awsAccount
serviceInstance }|- - awsAccount

@enduml

PlantUML version 1.2022.4(Sat Apr 09 13:29:17 UTC 2022)
(LGPL source distribution)
Java Runtime: OpenJDK Runtime Environment
JVM: OpenJDK 64-Bit Server VM
Default Encoding: ANSI_X3.4-1968
Language: en
Country: US
--></g></svg>