<?xml version="1.0" encoding="UTF-8" standalone="no"?><svg xmlns="http://www.w3.org/2000/svg" xmlns:xlink="http://www.w3.org/1999/xlink" contentStyleType="text/css" height="537px" preserveAspectRatio="none" style="width:724px;height:537px;background:#FFFFFF;" version="1.1" viewBox="0 0 724 537" width="724px" zoomAndPan="magnify"><defs/><g><rect height="29.0679" style="stroke:#00000000;stroke-width:1.0;fill:none;" width="296.875" x="212.5625" y="10"/><text fill="#000000" font-family="sans-serif" font-size="14" font-weight="bold" lengthAdjust="spacing" textLength="286.875" x="217.5625" y="29.9659">Red Hat SaaS Offering Provisioning - AWS</text><line style="stroke:#181818;stroke-width:0.5;stroke-dasharray:5.0,5.0;" x1="69" x2="69" y1="124.1358" y2="454.0201"/><line style="stroke:#181818;stroke-width:0.5;stroke-dasharray:5.0,5.0;" x1="314.5" x2="314.5" y1="124.1358" y2="454.0201"/><line style="stroke:#181818;stroke-width:0.5;stroke-dasharray:5.0,5.0;" x1="492" x2="492" y1="124.1358" y2="454.0201"/><line style="stroke:#181818;stroke-width:0.5;stroke-dasharray:5.0,5.0;" x1="636" x2="636" y1="124.1358" y2="454.0201"/><text fill="#000000" font-family="sans-serif" font-size="14" lengthAdjust="spacing" textLength="122" x="5" y="120.0339">Red Hat Customer</text><ellipse cx="69" cy="53.5679" fill="#E2E2F0" rx="8" ry="8" style="stroke:#181818;stroke-width:0.5;"/><path d="M69,61.5679 L69,88.5679 M56,69.5679 L82,69.5679 M69,88.5679 L56,103.5679 M69,88.5679 L82,103.5679 " fill="none" style="stroke:#181818;stroke-width:0.5;"/><text fill="#000000" font-family="sans-serif" font-size="14" lengthAdjust="spacing" textLength="122" x="5" y="467.986">Red Hat Customer</text><ellipse cx="69" cy="480.588" fill="#E2E2F0" rx="8" ry="8" style="stroke:#181818;stroke-width:0.5;"/><path d="M69,488.588 L69,515.588 M56,496.588 L82,496.588 M69,515.588 L56,530.588 M69,515.588 L82,530.588 " fill="none" style="stroke:#181818;stroke-width:0.5;"/><rect fill="#E2E2F0" height="52.1358" rx="2.5" ry="2.5" style="stroke:#181818;stroke-width:0.5;" width="103" x="263.5" y="71"/><text fill="#000000" font-family="sans-serif" font-size="14" lengthAdjust="spacing" textLength="89" x="270.5" y="92.9659">Red Hat SaaS</text><text fill="#000000" font-family="sans-serif" font-size="14" lengthAdjust="spacing" textLength="89" x="270.5" y="112.0339">Control Plane</text><rect fill="#E2E2F0" height="52.1358" rx="2.5" ry="2.5" style="stroke:#181818;stroke-width:0.5;" width="103" x="263.5" y="453.0201"/><text fill="#000000" font-family="sans-serif" font-size="14" lengthAdjust="spacing" textLength="89" x="270.5" y="474.986">Red Hat SaaS</text><text fill="#000000" font-family="sans-serif" font-size="14" lengthAdjust="spacing" textLength="89" x="270.5" y="494.0539">Control Plane</text><rect fill="#E2E2F0" height="52.1358" rx="2.5" ry="2.5" style="stroke:#181818;stroke-width:0.5;" width="104" x="440" y="71"/><text fill="#000000" font-family="sans-serif" font-size="14" lengthAdjust="spacing" textLength="67" x="458.5" y="92.9659">Telemetry</text><text fill="#000000" font-family="sans-serif" font-size="14" lengthAdjust="spacing" textLength="90" x="447" y="112.0339">(Prometheus)</text><rect fill="#E2E2F0" height="52.1358" rx="2.5" ry="2.5" style="stroke:#181818;stroke-width:0.5;" width="104" x="440" y="453.0201"/><text fill="#000000" font-family="sans-serif" font-size="14" lengthAdjust="spacing" textLength="67" x="458.5" y="474.986">Telemetry</text><text fill="#000000" font-family="sans-serif" font-size="14" lengthAdjust="spacing" textLength="90" x="447" y="494.0539">(Prometheus)</text><rect fill="#E2E2F0" height="52.1358" rx="2.5" ry="2.5" style="stroke:#181818;stroke-width:0.5;" width="164" x="554" y="71"/><text fill="#000000" font-family="sans-serif" font-size="14" lengthAdjust="spacing" textLength="46" x="613" y="92.9659">Service</text><text fill="#000000" font-family="sans-serif" font-size="14" lengthAdjust="spacing" textLength="150" x="561" y="112.0339">(e.g. RHOSAK instance)</text><rect fill="#E2E2F0" height="52.1358" rx="2.5" ry="2.5" style="stroke:#181818;stroke-width:0.5;" width="164" x="554" y="453.0201"/><text fill="#000000" font-family="sans-serif" font-size="14" lengthAdjust="spacing" textLength="46" x="613" y="474.986">Service</text><text fill="#000000" font-family="sans-serif" font-size="14" lengthAdjust="spacing" textLength="150" x="561" y="494.0539">(e.g. RHOSAK instance)</text><polygon fill="#181818" points="303,165.6949,313,169.6949,303,173.6949,307,169.6949" style="stroke:#181818;stroke-width:1.0;"/><line style="stroke:#181818;stroke-width:1.0;" x1="69" x2="309" y1="169.6949" y2="169.6949"/><text fill="#000000" font-family="sans-serif" font-size="13" lengthAdjust="spacing" textLength="222" x="76" y="163.8859">Provision w/ awsCustomerAccountId</text><path d="M320,139.1358 L320,184.1358 L541,184.1358 L541,149.1358 L531,139.1358 L320,139.1358 " fill="#FEFFDD" style="stroke:#181818;stroke-width:0.5;"/><path d="M531,139.1358 L531,149.1358 L541,149.1358 L531,139.1358 " fill="#FEFFDD" style="stroke:#181818;stroke-width:0.5;"/><text fill="#000000" font-family="sans-serif" font-size="13" lengthAdjust="spacing" textLength="185" x="326" y="158.0328">Control plane validates against</text><text fill="#000000" font-family="sans-serif" font-size="13" lengthAdjust="spacing" textLength="200" x="326" y="175.7389">data collected during onboarding</text><polygon fill="#181818" points="80,191.5479,70,195.5479,80,199.5479,76,195.5479" style="stroke:#181818;stroke-width:1.0;"/><line style="stroke:#181818;stroke-width:1.0;stroke-dasharray:2.0,2.0;" x1="74" x2="314" y1="195.5479" y2="195.5479"/><polygon fill="#181818" points="480,329.49,490,333.49,480,337.49,484,333.49" style="stroke:#181818;stroke-width:1.0;"/><line style="stroke:#181818;stroke-width:1.0;" x1="315" x2="486" y1="333.49" y2="333.49"/><text fill="#000000" font-family="sans-serif" font-size="13" lengthAdjust="spacing" textLength="111" x="322" y="221.4449">service metadata {</text><text fill="#000000" font-family="sans-serif" font-size="13" lengthAdjust="spacing" textLength="14" x="328" y="239.1509">id,</text><text fill="#000000" font-family="sans-serif" font-size="13" lengthAdjust="spacing" textLength="101" x="328" y="256.8569">webCustomerId,</text><text fill="#000000" font-family="sans-serif" font-size="13" lengthAdjust="spacing" textLength="147" x="328" y="274.5629">awsCustomerAccountId,</text><text fill="#000000" font-family="sans-serif" font-size="13" lengthAdjust="spacing" textLength="50" x="328" y="292.2689">product,</text><text fill="#000000" font-family="sans-serif" font-size="13" lengthAdjust="spacing" textLength="27" x="328" y="309.975">etc...</text><text fill="#000000" font-family="sans-serif" font-size="13" lengthAdjust="spacing" textLength="5" x="322" y="327.681">}</text><polygon fill="#181818" points="503,432.0201,493,436.0201,503,440.0201,499,436.0201" style="stroke:#181818;stroke-width:1.0;"/><line style="stroke:#181818;stroke-width:1.0;" x1="497" x2="635" y1="436.0201" y2="436.0201"/><text fill="#000000" font-family="sans-serif" font-size="13" lengthAdjust="spacing" textLength="75" x="509" y="359.387">usage data {</text><text fill="#000000" font-family="sans-serif" font-size="13" lengthAdjust="spacing" textLength="14" x="515" y="377.093">id,</text><text fill="#000000" font-family="sans-serif" font-size="13" lengthAdjust="spacing" textLength="36" x="515" y="394.799">value,</text><text fill="#000000" font-family="sans-serif" font-size="13" lengthAdjust="spacing" textLength="27" x="515" y="412.505">etc...</text><text fill="#000000" font-family="sans-serif" font-size="13" lengthAdjust="spacing" textLength="5" x="509" y="430.2111">}</text><!--MD5=[03b1ae65394b03f895a9ec4ee6572b4a]
@startuml

title "Red Hat SaaS Offering Provisioning - AWS"

actor "Red Hat Customer" as customer
participant "Red Hat SaaS\nControl Plane" as control_plane
participant "Telemetry\n(Prometheus)" as prometheus
participant "Service\n(e.g. RHOSAK instance)" as service

customer -> control_plane: Provision w/ awsCustomerAccountId
note right: Control plane validates against\ndata collected during onboarding
return

control_plane -> prometheus: service metadata {\n  id,\n  webCustomerId,\n  awsCustomerAccountId,\n  product,\n  etc...\n}

service -> prometheus: usage data {\n  id,\n  value,\n  etc...\n}

@enduml

PlantUML version 1.2022.4(Sat Apr 09 13:29:17 UTC 2022)
(LGPL source distribution)
Java Runtime: OpenJDK Runtime Environment
JVM: OpenJDK 64-Bit Server VM
Default Encoding: ANSI_X3.4-1968
Language: en
Country: US
--></g></svg>